<?xml version="1.0" encoding="utf-8"?>
<!-- Uploaded to: SVG Repo, www.svgrepo.com, Generator: SVG Repo Mixer Tools -->
<svg width="800px" height="800px" viewBox="-5.3 0 53.001 53.001" xmlns="http://www.w3.org/2000/svg">
  <g id="Group_105" data-name="Group 105" transform="translate(-284.795 -318.103)">
    <g id="Group_103" data-name="Group 103">
      <path id="Path_421" data-name="Path 421" d="M319.2,361.119a1.99,1.99,0,0,0-1.99,1.99v6.7l8.689-8.689Z" fill="#ffffff" stroke="#ff0050" stroke-linecap="round" stroke-linejoin="round" stroke-width="2.592"/>
      <path id="Path_422" data-name="Path 422" d="M319.2,361.119h6.7v-39.73a1.99,1.99,0,0,0-1.99-1.99H288.081a1.99,1.99,0,0,0-1.99,1.99v46.429a1.99,1.99,0,0,0,1.99,1.99h29.126v-6.7A1.99,1.99,0,0,1,319.2,361.119Z" fill="#ffffff" stroke="#ff0050" stroke-linecap="round" stroke-linejoin="round" stroke-width="2.592"/>
    </g>
    <path id="Path_423" data-name="Path 423" d="M311.693,326.593" fill="#ffffff" stroke="#ff0050" stroke-miterlimit="10" stroke-width="2.592"/>
    <path id="Path_424" data-name="Path 424" d="M299.59,326.593" fill="#ffffff" stroke="#ff0050" stroke-miterlimit="10" stroke-width="2.592"/>
    <rect id="Rectangle_96" data-name="Rectangle 96" width="5.889" height="5.889" transform="translate(292.084 325.393)" fill="#ffffff" stroke="#ff0050" stroke-miterlimit="10" stroke-width="2.592"/>
    <line id="Line_65" data-name="Line 65" x2="30.438" transform="translate(290.775 337.516)" fill="#ffffff" stroke="#ff0050" stroke-miterlimit="10" stroke-width="2.592"/>
    <line id="Line_66" data-name="Line 66" x2="30.438" transform="translate(290.775 355.185)" fill="#ffffff" stroke="#ff0050" stroke-miterlimit="10" stroke-width="2.592"/>
    <line id="Line_67" data-name="Line 67" x2="30.438" transform="translate(290.775 343.406)" fill="#ffffff" stroke="#ff0050" stroke-miterlimit="10" stroke-width="2.592"/>
    <g id="Group_104" data-name="Group 104">
      <line id="Line_68" data-name="Line 68" x2="30.438" transform="translate(290.775 349.295)" fill="#ffffff" stroke="#ff0050" stroke-miterlimit="10" stroke-width="2.592"/>
    </g>
  </g>
</svg>